<?xml version="1.0" encoding="UTF-8" standalone="no"?>
<!DOCTYPE svg PUBLIC "-//W3C//DTD SVG 20010904//EN"
              "http://www.w3.org/TR/2001/REC-SVG-20010904/DTD/svg10.dtd">

<svg xmlns="http://www.w3.org/2000/svg"
     width="169.312mm" height="62.1693mm"
     viewBox="0 0 640 235">
  <path id="Selection"
        fill="rgb(35, 38, 62)" 
        d="M 258.00,36.00
           C 259.57,31.07 261.82,28.03 265.01,24.00
             280.40,4.60 309.76,0.02 326.79,20.00
             340.07,35.59 336.47,55.72 334.00,74.00
             349.42,66.88 357.08,71.38 365.00,70.82
             378.61,69.86 386.05,69.51 396.00,80.00
             396.61,71.87 396.26,67.84 402.21,61.02
             415.48,45.81 439.70,49.78 448.00,68.00
             456.25,64.15 468.81,65.19 477.00,68.90
             477.00,68.90 487.00,75.02 487.00,75.02
             487.00,75.02 502.00,78.48 502.00,78.48
             513.90,83.25 521.49,93.70 524.00,106.00
             533.14,104.15 543.82,109.16 549.79,116.01
             553.03,119.74 553.31,122.30 557.00,126.00
             557.60,118.86 560.91,108.17 562.85,101.00
             566.98,85.76 571.06,70.30 577.89,56.00
             582.59,46.15 588.87,40.36 600.00,39.52
             603.52,39.25 609.50,40.29 613.00,41.13
             625.67,44.17 635.47,49.45 635.96,64.00
             636.20,71.22 630.40,95.86 628.37,104.00
             628.37,104.00 613.00,156.00 613.00,156.00
             613.00,156.00 604.33,181.00 604.33,181.00
             604.33,181.00 600.14,188.00 600.14,188.00
             598.43,191.77 599.78,193.99 600.14,198.00
             600.18,202.92 599.72,207.47 597.65,212.00
             592.19,223.97 581.30,228.14 569.00,228.00
             560.01,227.89 550.35,223.99 544.53,216.91
             541.35,213.05 540.93,209.56 538.59,207.60
             535.64,205.14 530.22,206.57 523.00,203.01
             515.96,199.54 512.89,194.79 510.83,194.19
             507.43,193.19 505.73,197.46 499.00,198.67
             485.67,201.08 475.26,196.17 466.00,187.00
             461.37,193.09 453.57,195.67 446.00,194.52
             446.00,194.52 434.28,192.04 434.28,192.04
             434.28,192.04 417.00,193.82 417.00,193.82
             410.27,193.31 405.22,190.67 399.00,189.00
             396.94,193.26 394.91,194.88 391.00,197.48
             378.80,205.59 361.47,204.53 350.01,195.47
             343.69,190.47 339.42,181.85 338.00,174.00
             329.66,174.29 329.81,177.51 324.00,182.91
             319.99,186.63 315.25,189.61 310.00,191.37
             302.37,193.58 292.69,193.61 285.00,191.37
             281.53,190.56 275.56,186.98 273.00,187.50
             270.93,187.93 267.77,190.78 266.00,192.10
             262.11,195.01 257.60,197.83 253.00,199.45
             245.92,201.96 239.37,202.08 232.00,202.00
             213.10,201.77 200.47,189.47 188.00,177.00
             181.11,189.81 170.47,197.63 156.00,199.70
             156.00,199.70 141.00,200.31 141.00,200.31
             141.00,200.31 130.00,208.44 130.00,208.44
             123.98,212.25 116.06,214.01 109.00,214.54
             105.35,214.74 102.10,213.57 99.00,214.54
             96.61,215.38 93.52,217.98 91.00,219.36
             84.70,222.81 75.24,226.46 68.00,225.91
             50.43,224.56 45.55,207.11 41.42,193.00
             40.09,188.44 36.79,182.49 39.00,178.00
             24.10,177.17 15.46,163.01 18.68,149.00
             20.67,140.34 25.03,139.08 24.28,133.00
             24.28,133.00 20.88,119.00 20.88,119.00
             18.33,108.25 14.12,88.65 14.00,78.00
             13.96,74.31 13.84,70.52 15.13,67.00
             19.51,55.07 35.87,47.47 48.00,48.04
             56.01,48.42 58.39,52.03 62.00,52.28
             64.47,52.45 69.37,49.96 72.00,49.09
             76.41,47.63 81.36,46.86 86.00,47.04
             106.20,47.82 117.30,58.11 125.00,76.00
             141.69,70.54 154.63,71.84 168.00,84.00
             168.65,76.82 171.56,70.38 174.75,64.00
             184.07,45.38 203.14,28.26 225.00,28.00
             225.00,28.00 231.00,28.00 231.00,28.00
             243.18,28.15 247.68,32.22 258.00,36.00 Z
           M 374.00,173.00
           C 374.00,173.00 375.83,147.00 375.83,147.00
             375.83,147.00 379.09,109.00 379.09,109.00
             379.09,109.00 379.99,100.00 379.99,100.00
             380.02,98.32 380.11,94.77 379.40,93.31
             376.94,88.21 365.51,91.16 361.00,90.91
             357.25,90.70 355.30,89.83 351.00,90.09
             343.23,90.57 335.45,94.86 330.76,101.01
             322.54,111.81 323.63,118.56 320.51,130.00
             320.51,130.00 311.22,152.00 311.22,152.00
             309.07,156.11 303.01,167.31 297.18,164.72
             294.46,163.51 292.71,159.63 291.71,157.00
             289.51,151.27 285.02,134.64 286.65,129.00
             286.65,129.00 300.11,105.00 300.11,105.00
             307.12,91.71 314.91,71.95 316.08,57.00
             316.84,47.38 316.59,34.77 306.99,29.28
             296.66,23.37 284.93,30.43 278.79,39.00
             275.99,42.90 272.99,49.47 271.20,54.00
             265.08,69.59 263.97,87.43 264.00,104.00
             264.00,104.00 267.20,134.00 267.20,134.00
             267.05,136.52 266.13,138.72 265.14,141.00
             265.14,141.00 255.74,160.00 255.74,160.00
             249.85,171.38 238.02,182.87 226.17,170.90
             224.03,168.73 221.86,165.65 220.34,163.00
             210.80,146.35 206.78,122.03 207.00,103.00
             207.10,94.54 209.91,79.45 213.82,72.00
             215.80,68.24 219.61,63.39 224.00,62.52
             231.64,60.99 240.46,69.13 244.19,75.00
             245.44,76.96 247.10,80.93 248.64,82.26
             251.57,84.78 257.05,83.94 257.85,78.95
             258.32,76.05 257.61,71.83 256.84,69.00
             250.96,47.29 226.32,42.57 209.00,54.10
             184.89,70.15 182.34,103.11 187.00,129.00
             180.47,127.31 179.62,130.63 176.78,136.00
             176.78,136.00 163.00,162.00 163.00,162.00
             161.22,165.09 157.43,173.41 152.85,171.06
             147.26,168.20 142.58,154.90 140.67,149.00
             139.79,146.28 138.53,142.93 140.04,140.21
             141.32,137.89 145.72,135.62 147.96,133.67
             151.73,130.40 154.78,125.80 156.22,121.00
             160.09,108.05 156.39,92.33 140.00,93.05
             132.34,93.38 126.30,99.61 122.80,106.00
             116.38,117.71 115.87,134.16 118.67,147.00
             119.81,152.23 123.36,158.94 123.36,163.00
             123.37,168.79 119.89,186.43 112.00,185.58
             106.98,185.03 96.60,173.85 92.91,169.99
             92.91,169.99 75.00,153.00 75.00,153.00
             95.33,144.19 110.85,122.65 109.96,100.00
             109.68,92.77 106.67,81.85 102.37,76.02
             93.66,64.21 76.85,64.95 67.18,75.09
             61.64,80.90 59.17,88.82 56.00,96.00
             54.61,91.19 50.41,72.24 47.92,69.58
             45.41,66.89 34.05,69.17 34.06,78.00
             34.07,95.41 47.93,139.27 49.00,152.00
             46.48,152.00 38.63,151.11 38.63,155.00
             38.63,160.28 48.75,157.22 51.92,161.31
             53.18,162.95 54.92,168.76 55.67,171.00
             55.67,171.00 62.67,193.00 62.67,193.00
             63.62,195.87 65.49,202.52 67.65,204.39
             71.16,207.43 80.83,203.42 81.51,198.95
             81.85,196.75 80.35,192.24 79.71,190.00
             79.71,190.00 75.00,173.00 75.00,173.00
             81.08,179.08 90.19,189.35 98.00,192.52
             113.95,198.98 128.49,188.59 130.00,172.00
             134.36,174.72 137.94,177.69 143.00,179.07
             150.38,181.10 159.05,179.81 164.91,174.66
             169.20,170.88 171.72,165.05 174.25,160.00
             174.25,160.00 188.00,132.00 188.00,132.00
             189.07,138.85 192.15,145.04 195.58,151.00
             204.45,166.42 216.38,182.44 236.00,181.99
             240.38,181.88 245.07,180.99 249.00,179.00
             261.64,172.62 265.95,158.65 272.00,147.00
             274.90,159.35 282.84,172.97 297.00,172.97
             301.37,172.97 305.40,171.93 308.99,169.35
             315.14,164.94 320.03,154.91 323.00,148.00
             324.42,149.66 325.16,150.73 327.09,151.91
             339.51,159.55 348.47,142.29 354.00,134.00
             354.00,145.67 353.78,163.47 358.91,174.00
             362.95,182.29 372.11,185.55 380.00,180.30
             390.18,173.53 394.19,156.66 402.00,149.00
             402.02,154.60 402.28,160.02 405.22,165.00
             410.16,173.36 420.62,176.59 428.91,171.01
             432.71,168.44 435.64,162.92 438.00,159.00
             438.00,161.34 437.71,168.83 438.57,170.57
             440.43,174.32 450.07,175.60 452.43,171.76
             452.43,171.76 458.08,153.00 458.08,153.00
             461.85,142.05 468.50,128.96 474.45,119.00
             477.44,114.00 490.13,95.94 491.95,112.00
             491.95,112.00 491.95,117.00 491.95,117.00
             492.03,135.84 489.29,145.91 485.80,164.00
             484.77,169.33 481.65,176.97 489.02,178.51
             496.88,180.17 497.59,172.51 500.26,167.00
             505.59,155.97 511.81,142.01 523.00,136.00
             524.55,148.04 520.30,169.54 527.00,179.96
             531.67,187.21 540.41,187.50 546.96,182.70
             556.37,175.79 564.54,162.69 571.00,153.00
             570.14,156.25 567.38,166.92 568.61,169.70
             570.22,173.32 583.20,175.40 585.92,172.43
             587.15,171.08 588.38,166.86 589.00,165.00
             589.00,165.00 594.67,147.00 594.67,147.00
             594.67,147.00 611.42,88.00 611.42,88.00
             612.25,84.25 616.15,67.80 615.60,65.13
             614.71,60.83 602.77,58.24 599.39,60.21
             596.73,61.76 594.51,68.11 593.28,71.00
             587.80,83.95 582.14,105.97 578.63,120.00
             578.63,120.00 572.00,150.03 572.00,150.03
             569.82,149.55 568.26,149.00 566.09,150.03
             563.70,151.23 561.24,154.86 559.63,157.00
             559.63,157.00 548.57,171.00 548.57,171.00
             546.66,173.23 541.59,179.49 538.28,178.55
             533.89,177.29 535.14,167.31 535.58,164.00
             537.19,151.81 543.14,120.27 521.00,126.64
             518.75,127.28 515.95,128.81 514.00,130.10
             510.19,132.64 507.22,135.79 504.00,139.00
             504.29,125.83 510.34,100.62 492.00,96.76
             489.38,96.14 487.60,96.29 485.00,96.76
             481.92,97.45 479.73,98.32 477.00,99.88
             472.78,102.29 470.42,104.66 467.00,108.00
             467.00,108.00 470.00,87.01 470.00,87.01
             466.60,86.39 459.41,85.03 456.42,87.01
             454.32,88.42 453.44,91.72 452.67,94.00
             452.67,94.00 447.71,110.00 447.71,110.00
             447.71,110.00 441.34,136.00 441.34,136.00
             439.97,139.63 433.88,148.07 431.42,152.00
             428.02,157.43 424.87,163.97 419.00,167.00
             417.78,161.57 417.07,160.89 417.00,155.00
             416.83,140.58 418.87,126.18 421.55,112.00
             422.18,107.81 425.86,96.00 421.55,93.43
             412.66,87.86 409.51,101.05 407.72,107.00
             407.72,107.00 402.07,128.00 402.07,128.00
             402.07,128.00 387.80,154.00 387.80,154.00
             383.99,160.38 379.67,168.20 374.00,173.00 Z
           M 285.00,112.00
           C 281.24,96.54 284.92,69.46 289.15,54.00
             290.14,50.38 292.44,43.07 294.36,40.06
             295.48,38.30 297.26,36.07 299.62,37.17
             304.70,39.52 305.05,53.27 304.42,58.00
             300.71,85.95 297.64,87.31 287.00,112.00
             287.00,112.00 285.00,112.00 285.00,112.00 Z
           M 437.00,79.00
           C 436.11,63.15 417.88,57.69 410.00,72.00
             410.00,72.00 420.00,73.00 420.00,73.00
             407.66,80.41 426.92,91.51 429.53,79.96
             429.97,78.01 429.47,76.81 429.00,75.00
             429.00,75.00 437.00,79.00 437.00,79.00 Z
           M 78.04,77.13
           C 89.37,75.08 94.96,94.35 94.86,103.00
             94.86,103.00 94.86,115.00 94.86,115.00
             93.19,126.68 85.28,141.81 74.00,146.57
             68.70,148.80 67.91,145.31 66.73,141.00
             65.15,135.15 64.03,128.05 64.00,122.00
             64.00,122.00 64.00,112.00 64.00,112.00
             64.13,101.36 68.93,83.30 78.04,77.13 Z
           M 230.00,90.00
           C 226.75,94.41 226.94,103.55 227.00,109.00
             227.09,116.76 229.71,132.54 232.02,140.00
             233.54,144.88 234.33,148.29 238.00,152.00
             238.00,152.00 246.57,133.00 246.57,133.00
             246.99,130.56 245.16,118.37 244.72,115.00
             244.39,112.46 244.01,105.03 242.98,103.38
             240.77,99.84 235.87,100.04 230.00,90.00 Z
           M 333.00,147.00
           C 333.00,131.52 334.71,118.89 344.16,106.00
             346.64,102.62 353.41,95.03 358.26,98.99
             361.65,101.76 357.70,109.04 356.24,112.00
             351.88,120.89 347.41,129.69 342.00,138.00
             339.06,142.51 338.34,145.34 333.00,147.00 Z
           M 141.00,102.00
           C 150.26,110.32 146.15,126.28 137.00,133.00
             137.00,123.16 136.16,110.82 141.00,102.00 Z
           M 285.00,113.00
           C 285.00,113.00 286.00,113.00 286.00,113.00
             286.00,113.00 285.00,114.00 285.00,114.00
             285.00,114.00 285.00,113.00 285.00,113.00 Z
           M 565.02,191.47
           C 553.60,196.02 558.52,213.88 569.00,212.13
             580.36,210.25 581.35,198.82 578.98,195.56
             576.78,192.54 568.51,191.19 565.02,191.47 Z" />
  <path id="Selection2"
        fill="white"
        d="M 271.00,145.00
           C 269.60,150.94 266.62,156.66 263.69,162.00
             260.93,167.02 257.57,171.94 253.00,175.47
             245.61,181.17 232.64,182.86 224.00,179.39
             220.38,177.93 213.98,173.34 211.04,170.70
             207.10,167.18 203.92,162.40 201.00,158.00
             191.84,144.18 186.20,130.83 186.00,114.00
             186.00,114.00 186.00,102.00 186.00,102.00
             186.08,85.38 193.73,66.95 207.00,56.68
             227.96,40.46 254.49,51.38 256.83,73.00
             257.27,77.07 257.00,85.80 250.22,81.96
             247.84,80.61 245.69,75.49 243.95,73.00
             240.21,67.66 231.93,61.02 225.00,61.52
             214.04,62.31 209.49,80.21 207.80,89.00
             203.72,110.31 207.74,136.05 216.01,156.00
             219.26,163.83 225.71,175.41 235.00,176.63
             249.97,178.60 259.65,154.99 264.69,144.00
             265.68,141.84 267.76,137.20 268.08,135.00
             268.08,135.00 265.00,106.00 265.00,106.00
             264.97,83.75 266.16,57.72 279.78,39.00
             286.34,29.99 300.30,23.13 309.67,32.34
             314.44,37.02 316.28,46.51 315.91,53.00
             314.98,69.40 306.45,91.56 298.69,106.00
             295.99,111.03 285.62,126.93 285.38,131.00
             285.04,136.69 288.83,151.44 290.96,157.00
             292.11,159.99 293.94,164.53 297.09,165.87
             301.09,167.57 305.27,162.81 307.39,160.00
             311.65,154.35 317.79,139.95 320.38,133.00
             323.86,123.67 322.02,117.67 327.90,107.00
             332.82,98.07 340.46,91.50 351.00,91.04
             351.00,91.04 364.00,91.91 364.00,91.91
             371.92,91.25 370.38,90.46 379.00,91.91
             379.00,91.91 374.92,148.00 374.92,148.00
             374.25,156.26 372.06,166.04 374.00,174.00
             380.27,169.10 384.17,161.74 388.20,155.00
             388.20,155.00 403.45,127.00 403.45,127.00
             403.45,127.00 406.63,114.00 406.63,114.00
             407.73,109.72 411.49,95.28 415.39,93.79
             417.37,92.73 420.90,93.62 423.00,93.79
             422.92,102.77 420.85,109.56 419.43,118.00
             419.43,118.00 416.17,147.00 416.17,147.00
             415.80,150.89 415.62,164.04 419.41,166.09
             421.75,167.35 423.84,164.54 425.10,162.98
             425.10,162.98 434.42,149.00 434.42,149.00
             436.50,145.68 440.41,140.29 441.78,137.00
             441.78,137.00 451.33,101.00 451.33,101.00
             452.38,97.84 454.62,88.85 457.42,87.11
             458.76,86.62 460.53,86.80 462.00,87.11
             463.89,86.98 466.71,86.98 467.98,88.60
             470.24,91.49 466.73,105.10 466.00,109.00
             470.36,105.98 474.23,102.22 479.00,99.83
             481.37,98.65 484.37,97.63 487.00,97.31
             500.31,95.69 504.92,109.20 504.92,120.00
             504.92,120.00 503.83,132.00 503.83,132.00
             503.83,132.00 503.00,141.00 503.00,141.00
             506.65,137.36 509.70,134.17 514.00,131.22
             516.19,129.71 518.48,128.43 521.00,127.55
             528.77,124.81 534.36,127.96 536.32,136.00
             537.59,141.25 535.45,158.58 534.83,165.00
             534.47,168.72 532.94,178.17 538.14,179.55
             541.35,180.40 545.93,175.11 547.91,173.00
             547.91,173.00 560.11,158.00 560.11,158.00
             563.32,153.72 564.27,150.30 570.00,150.00
             568.09,159.37 553.71,176.93 546.00,182.43
             540.78,186.16 532.91,185.93 528.65,180.79
             525.97,177.56 525.22,173.02 524.59,169.00
             524.59,169.00 524.00,135.00 524.00,135.00
             509.45,139.96 500.20,165.84 494.00,179.00
             494.00,179.00 485.00,177.00 485.00,177.00
             485.37,160.15 493.04,142.07 492.91,118.00
             492.91,118.00 492.91,112.00 492.91,112.00
             492.91,112.00 492.20,109.02 492.20,109.02
             488.24,96.93 476.99,113.43 474.20,118.00
             459.11,142.79 459.52,148.43 451.00,174.00
             448.07,173.60 441.82,173.01 440.02,170.49
             438.25,168.00 439.72,162.06 438.00,156.00
             434.83,164.60 428.33,173.84 418.00,172.80
             413.74,172.37 410.09,170.29 407.42,166.96
             402.58,160.93 403.19,152.15 401.00,145.00
             399.13,151.54 386.86,173.42 381.96,177.78
             376.27,182.86 367.88,183.61 362.39,177.78
             354.05,168.93 355.00,144.71 355.00,133.00
             347.95,138.97 338.61,160.84 326.38,150.35
             324.95,149.13 324.02,147.55 323.00,146.00
             320.36,152.12 315.52,162.25 310.82,166.79
             303.98,173.38 291.31,174.13 284.17,167.66
             277.38,161.51 275.03,152.77 271.00,145.00 Z
           M 284.00,116.00
           C 288.14,113.34 291.13,105.55 293.14,101.00
             300.20,85.02 303.91,74.52 305.25,57.00
             305.64,51.80 305.07,44.80 302.89,40.02
             301.83,37.67 300.10,34.97 297.09,36.17
             293.42,37.62 290.98,45.44 289.88,49.00
             286.40,60.34 283.06,75.16 283.15,87.00
             283.15,87.00 283.15,108.71 283.15,108.71
             283.73,110.27 283.99,110.09 285.00,111.00
             285.00,111.00 284.00,116.00 284.00,116.00 Z
           M 569.00,171.00
           C 569.08,161.66 573.28,145.55 575.63,136.00
             575.63,136.00 588.33,88.00 588.33,88.00
             590.16,82.51 595.43,64.69 599.39,61.61
             602.78,58.98 610.95,62.19 615.00,63.00
             614.82,71.34 611.00,86.49 608.87,95.00
             608.87,95.00 594.33,146.00 594.33,146.00
             594.33,146.00 588.33,164.00 588.33,164.00
             587.57,166.28 586.35,170.85 584.49,172.31
             581.71,174.51 572.65,171.51 569.00,171.00 Z
           M 55.00,97.00
           C 62.23,90.15 60.96,77.15 75.00,70.40
             95.85,60.38 108.57,81.72 108.99,100.00
             109.33,115.27 102.24,131.53 90.99,141.83
             90.99,141.83 74.00,154.00 74.00,154.00
             84.55,161.32 86.80,165.48 95.04,174.00
             98.53,177.61 108.63,187.78 113.98,186.30
             120.83,184.40 124.17,169.22 124.20,163.00
             124.22,159.02 120.63,151.75 119.50,147.00
             116.68,135.08 117.53,116.76 123.68,106.00
             126.92,100.33 132.17,94.75 139.00,94.10
             155.11,92.59 159.00,107.27 155.51,120.00
             154.20,124.79 151.62,129.33 147.91,132.67
             145.29,135.03 140.51,137.22 139.06,140.10
             137.73,142.75 138.92,146.33 139.72,149.00
             141.39,154.59 146.69,169.42 152.04,171.77
             157.49,174.16 161.25,166.75 163.42,163.00
             163.42,163.00 176.75,138.00 176.75,138.00
             179.40,132.72 180.31,128.63 187.00,130.00
             185.71,134.52 183.45,138.69 181.58,143.00
             181.58,143.00 174.25,158.00 174.25,158.00
             167.88,170.73 164.48,179.68 148.00,178.96
             144.72,178.82 141.91,178.17 139.00,176.59
             135.50,174.69 132.80,171.77 130.00,169.00
             129.40,173.24 128.53,177.11 126.67,181.00
             125.20,184.08 123.57,186.42 120.96,188.66
             118.02,191.18 114.76,192.56 111.00,193.33
             94.84,196.65 85.21,180.03 74.00,172.00
             74.00,172.00 78.86,190.00 78.86,190.00
             79.50,192.25 81.01,196.70 80.59,198.89
             79.87,202.71 71.72,205.94 68.50,203.94
             65.87,202.30 63.74,194.05 62.86,191.00
             62.86,191.00 56.72,172.00 56.72,172.00
             55.86,169.15 54.49,163.43 52.92,161.15
             49.01,155.45 39.57,160.10 39.61,154.92
             39.63,151.26 47.54,152.13 50.00,152.00
             50.00,152.00 37.25,95.00 37.25,95.00
             36.43,90.30 34.69,81.45 35.06,77.02
             35.64,70.13 45.00,67.58 47.91,71.32
             50.07,74.09 54.40,92.73 55.00,97.00 Z
           M 420.23,73.96
           C 422.46,73.21 424.47,72.74 426.57,73.96
             429.62,76.25 429.45,81.58 425.77,83.26
             419.05,86.34 413.48,78.60 420.23,73.96 Z
           M 79.00,75.81
           C 73.72,78.21 71.18,82.85 68.86,88.00
             63.44,100.08 62.94,108.11 63.00,121.00
             63.03,128.00 64.43,135.22 66.13,142.00
             66.97,145.37 67.52,149.43 72.04,148.25
             75.01,147.48 79.74,143.99 81.99,141.90
             93.45,131.24 96.18,117.95 96.00,103.00
             95.89,93.84 89.84,76.05 79.00,75.81 Z
           M 353.00,97.43
           C 341.65,101.88 334.84,119.65 333.13,131.00
             332.62,134.41 331.60,140.68 332.15,143.94
             332.50,146.07 333.46,147.88 335.95,146.83
             338.54,145.74 342.02,139.51 343.58,137.00
             348.81,128.56 354.79,118.12 358.66,109.00
             361.36,102.66 361.95,96.37 353.00,97.43 Z
           M 137.00,134.00
           C 139.36,132.67 140.45,132.16 142.15,129.89
             146.42,124.22 149.71,108.86 143.57,103.60
             142.04,102.28 140.83,102.30 139.00,102.00
             137.05,111.68 134.24,124.30 137.00,134.00 Z
           M 564.11,192.74
           C 568.27,191.79 573.33,192.53 576.57,195.65
             580.08,199.02 579.53,205.03 573.98,207.10
             564.68,210.56 553.89,199.20 564.11,192.74 Z" />
</svg>
